<svg xmlns="http://www.w3.org/2000/svg" viewBox="0 0 32 32">
  <rect x="2" y="2" width="28" height="28" rx="6" fill="#635bff" />
  <path fill="#ffffff" d="M15.94 6.5c-4.32 0-6.94 2.47-6.94 5.69 0 2.03 1.1 3.45 2.79 4.44.38.22.51.44.51.75 0 .21-.07.41-.27.63l-2.84 3.05c-.3.31-.45.63-.45.98 0 .75.66 1.41 1.49 1.41.47 0 .89-.2 1.23-.57l2.97-3.27c.39-.43.59-.92.59-1.42 0-.89-.49-1.67-1.33-2.16-1.05-.62-1.64-1.28-1.64-2.35 0-1.63 1.43-2.88 3.38-2.88 1.8 0 2.97.93 3.15 2.24a1.5 1.5 0 0 0 1.49 1.3c.84 0 1.5-.64 1.5-1.46 0-2.94-2.57-5.38-6.08-5.38Zm-.17 17.57c-1.2 0-2.16.93-2.16 2.09 0 1.15.96 2.08 2.16 2.08 1.21 0 2.18-.93 2.18-2.08 0-1.16-.97-2.09-2.18-2.09Z" />
</svg>
